<svg id="visual" viewBox="0 0 1920 150" width="1920" height="150" xmlns="http://www.w3.org/2000/svg" xmlns:xlink="http://www.w3.org/1999/xlink" version="1.1"><rect x="0" y="0" width="1920" height="150" fill="#f6f9fc"></rect><path d="M0 32L45.7 37.7C91.3 43.3 182.7 54.7 274.2 55C365.7 55.3 457.3 44.7 548.8 37.8C640.3 31 731.7 28 823 28.7C914.3 29.3 1005.7 33.7 1097 41.2C1188.3 48.7 1279.7 59.3 1371.2 63.2C1462.7 67 1554.3 64 1645.8 56.5C1737.3 49 1828.7 37 1874.3 31L1920 25L1920 0L1874.3 0C1828.7 0 1737.3 0 1645.8 0C1554.3 0 1462.7 0 1371.2 0C1279.7 0 1188.3 0 1097 0C1005.7 0 914.3 0 823 0C731.7 0 640.3 0 548.8 0C457.3 0 365.7 0 274.2 0C182.7 0 91.3 0 45.7 0L0 0Z" fill="#FFFFFF" stroke-linecap="round" stroke-linejoin="miter"></path></svg>