<svg id="visual" viewBox="0 0 1920 150" width="1920" height="150" xmlns="http://www.w3.org/2000/svg" xmlns:xlink="http://www.w3.org/1999/xlink" version="1.1"><rect x="0" y="0" width="1920" height="150" fill="#192733"></rect><path d="M0 83L45.7 87.2C91.3 91.3 182.7 99.7 274.2 101C365.7 102.3 457.3 96.7 548.8 94.7C640.3 92.7 731.7 94.3 823 98.8C914.3 103.3 1005.7 110.7 1097 113.8C1188.3 117 1279.7 116 1371.2 108.5C1462.7 101 1554.3 87 1645.8 84.2C1737.3 81.3 1828.7 89.7 1874.3 93.8L1920 98L1920 151L1874.3 151C1828.7 151 1737.3 151 1645.8 151C1554.3 151 1462.7 151 1371.2 151C1279.7 151 1188.3 151 1097 151C1005.7 151 914.3 151 823 151C731.7 151 640.3 151 548.8 151C457.3 151 365.7 151 274.2 151C182.7 151 91.3 151 45.7 151L0 151Z" fill="#f6f9fc" stroke-linecap="round" stroke-linejoin="miter"></path></svg>